<svg width="96" height="96" viewBox="0 0 96 96" fill="none" xmlns="http://www.w3.org/2000/svg">
<path opacity="0.4" d="M87.0419 63.68L61.4419 17.6C58.0019 11.4 53.2419 8 48.0019 8C42.7619 8 38.0019 11.4 34.5619 17.6L8.96186 63.68C5.72186 69.56 5.36186 75.2 7.96186 79.64C10.5619 84.08 15.6819 86.52 22.4019 86.52H73.6019C80.3219 86.52 85.4419 84.08 88.0419 79.64C90.6419 75.2 90.2819 69.52 87.0419 63.68Z" fill="#EF4444"/>
<path d="M48 59C46.36 59 45 57.64 45 56V36C45 34.36 46.36 33 48 33C49.64 33 51 34.36 51 36V56C51 57.64 49.64 59 48 59Z" fill="#EF4444"/>
<path d="M48 71.9983C47.76 71.9983 47.48 71.9583 47.2 71.9183C46.96 71.8783 46.72 71.7983 46.48 71.6783C46.24 71.5983 46 71.4783 45.76 71.3183C45.56 71.1583 45.36 70.9983 45.16 70.8383C44.44 70.0783 44 69.0383 44 67.9983C44 66.9583 44.44 65.9183 45.16 65.1583C45.36 64.9983 45.56 64.8383 45.76 64.6783C46 64.5183 46.24 64.3983 46.48 64.3183C46.72 64.1983 46.96 64.1183 47.2 64.0783C47.72 63.9583 48.28 63.9583 48.76 64.0783C49.04 64.1183 49.28 64.1983 49.52 64.3183C49.76 64.3983 50 64.5183 50.24 64.6783C50.44 64.8383 50.64 64.9983 50.84 65.1583C51.56 65.9183 52 66.9583 52 67.9983C52 69.0383 51.56 70.0783 50.84 70.8383C50.64 70.9983 50.44 71.1583 50.24 71.3183C50 71.4783 49.76 71.5983 49.52 71.6783C49.28 71.7983 49.04 71.8783 48.76 71.9183C48.52 71.9583 48.24 71.9983 48 71.9983Z" fill="#EF4444"/>
</svg>
