<svg width="96" height="96" viewBox="0 0 96 96" fill="none" xmlns="http://www.w3.org/2000/svg">
<path opacity="0.4" d="M48 88C70.0914 88 88 70.0914 88 48C88 25.9086 70.0914 8 48 8C25.9086 8 8 25.9086 8 48C8 70.0914 25.9086 88 48 88Z" fill="#EAB308"/>
<path d="M48 55C49.64 55 51 53.64 51 52V32C51 30.36 49.64 29 48 29C46.36 29 45 30.36 45 32V52C45 53.64 46.36 55 48 55Z" fill="#EAB308"/>
<path d="M51.68 62.4795C51.48 61.9995 51.2 61.5595 50.84 61.1595C50.44 60.7995 50 60.5195 49.52 60.3195C48.56 59.9195 47.44 59.9195 46.48 60.3195C46 60.5195 45.56 60.7995 45.16 61.1595C44.8 61.5595 44.52 61.9995 44.32 62.4795C44.12 62.9595 44 63.4795 44 63.9995C44 64.5195 44.12 65.0395 44.32 65.5195C44.52 66.0395 44.8 66.4395 45.16 66.8395C45.56 67.1995 46 67.4795 46.48 67.6795C46.96 67.8795 47.48 67.9995 48 67.9995C48.52 67.9995 49.04 67.8795 49.52 67.6795C50 67.4795 50.44 67.1995 50.84 66.8395C51.2 66.4395 51.48 66.0395 51.68 65.5195C51.88 65.0395 52 64.5195 52 63.9995C52 63.4795 51.88 62.9595 51.68 62.4795Z" fill="#EAB308"/>
</svg>
