<svg width="96" height="96" viewBox="0 0 96 96" fill="none" xmlns="http://www.w3.org/2000/svg">
<path opacity="0.4" d="M48 88C70.0914 88 88 70.0914 88 48C88 25.9086 70.0914 8 48 8C25.9086 8 8 25.9086 8 48C8 70.0914 25.9086 88 48 88Z" fill="#22C55E"/>
<path d="M42.3217 62.3184C41.5217 62.3184 40.7617 61.9984 40.2017 61.4384L28.8817 50.1184C27.7217 48.9584 27.7217 47.0384 28.8817 45.8784C30.0417 44.7184 31.9617 44.7184 33.1217 45.8784L42.3217 55.0784L62.8817 34.5184C64.0417 33.3584 65.9617 33.3584 67.1217 34.5184C68.2817 35.6784 68.2817 37.5984 67.1217 38.7584L44.4417 61.4384C43.8817 61.9984 43.1217 62.3184 42.3217 62.3184Z" fill="#22C55E"/>
</svg>
